<?xml version="1.0" encoding="utf-8"?>
<!-- Generator: Adobe Illustrator 20.1.0, SVG Export Plug-In . SVG Version: 6.00 Build 0)  -->
<svg version="1.1" xmlns="http://www.w3.org/2000/svg" xmlns:xlink="http://www.w3.org/1999/xlink" x="0px" y="0px"
	 viewBox="0 0 152.3 150" style="enable-background:new 0 0 152.3 150;" xml:space="preserve">
<style type="text/css">
	.st0{opacity:0.3;}
	.st1{fill:#FFFFFF;}
	.st2{opacity:0.3;fill:none;stroke:#000000;stroke-width:8;stroke-miterlimit:10;}
</style>
<g id="Layer_1">
	<g class="st0">
		<path class="st1" d="M75,145.5c-38.9,0-70.5-31.6-70.5-70.5S36.1,4.5,75,4.5s70.5,31.6,70.5,70.5S113.9,145.5,75,145.5z"/>
		<path d="M75,9c36.4,0,66,29.6,66,66s-29.6,66-66,66S9,111.4,9,75S38.6,9,75,9 M75,0C33.6,0,0,33.6,0,75c0,41.4,33.6,75,75,75
			c41.4,0,75-33.6,75-75C150,33.6,116.4,0,75,0L75,0z"/>
	</g>
	<g class="st0">
		<circle cx="47.1" cy="68.5" r="2.9"/>
	</g>
	<g class="st0">
		<circle cx="103.5" cy="69.9" r="2.9"/>
	</g>
	<path class="st2" d="M44.2,110.3C44.2,98.5,58,88.9,75,88.9"/>
	<path class="st2" d="M103.5,110.3c0-11.8-12.8-21.4-28.5-21.4"/>
</g>
<g id="Layer_2">
</g>
</svg>
