<svg xmlns="http://www.w3.org/2000/svg" viewBox="0 0 1500 867.5"><defs><style>.cls-1{stroke:#000;opacity:0.8;}.cls-1,.cls-24{stroke-miterlimit:10;}.cls-2{font-size:24px;fill:#fff;font-family:Moon-Bold, Moon;}.cls-3{font-weight:700;}.cls-10,.cls-11,.cls-12,.cls-13,.cls-4,.cls-5,.cls-6,.cls-7,.cls-8,.cls-9{font-family:HelveticaLTStd-Roman, Helvetica LT Std;}.cls-5{letter-spacing:-0.09em;}.cls-6{letter-spacing:-0.14em;}.cls-7{letter-spacing:0em;}.cls-20,.cls-8{letter-spacing:-0.01em;}.cls-19,.cls-9{letter-spacing:0em;}.cls-10,.cls-14{letter-spacing:0.04em;}.cls-11,.cls-21{letter-spacing:-0.02em;}.cls-12{letter-spacing:-0.01em;}.cls-13,.cls-18{letter-spacing:-0.02em;}.cls-15{letter-spacing:1.07em;}.cls-16{letter-spacing:1.22em;}.cls-17{letter-spacing:-0.01em;}.cls-22{letter-spacing:0.03em;}.cls-23{letter-spacing:-0.03em;}.cls-24{fill:none;stroke:#fdb515;stroke-width:5px;}</style></defs><title>2</title><g id="Layer_3" data-name="Layer 3"><rect class="cls-1" x="303.86" y="-8.01" width="1196.43" height="875.51"/><text class="cls-2" transform="translate(369.87 160.61)"><tspan class="cls-3">1</tspan><tspan class="cls-4" x="13.77" y="0">)</tspan><tspan class="cls-5" x="21.76" y="0"> </tspan><tspan class="cls-6" x="26.27" y="0">Y</tspan><tspan class="cls-7" x="38.92" y="0">ou can s</tspan><tspan class="cls-8" x="129.64" y="0">t</tspan><tspan class="cls-9" x="136.07" y="0">a</tspan><tspan class="cls-10" x="149.42" y="0">r</tspan><tspan class="cls-4" x="158.37" y="0">t </tspan><tspan class="cls-11" x="171.71" y="0">b</tspan><tspan class="cls-4" x="184.58" y="0">y impo</tspan><tspan class="cls-10" x="255.26" y="0">r</tspan><tspan class="cls-4" x="264.21" y="0">ting da</tspan><tspan class="cls-12" x="336.26" y="0">t</tspan><tspan class="cls-4" x="342.69" y="0">a in</tspan><tspan class="cls-13" x="381.38" y="0">t</tspan><tspan class="cls-4" x="387.57" y="0">o Genamap</tspan><tspan class="cls-4"><tspan x="0" y="86.4">Impo</tspan><tspan class="cls-14" x="53.35" y="86.4">r</tspan><tspan x="62.3" y="86.4">t </tspan><tspan class="cls-15" x="75.65" y="86.4">	</tspan><tspan class="cls-16" x="108" y="86.4">	</tspan><tspan x="144" y="86.4">Local da</tspan><tspan class="cls-17" x="234.72" y="86.4">t</tspan><tspan x="241.15" y="86.4">a f</tspan><tspan class="cls-18" x="267.84" y="86.4">r</tspan><tspan x="275.35" y="86.4">om </tspan><tspan class="cls-18" x="315.36" y="86.4">y</tspan><tspan class="cls-19" x="326.88" y="86.4">our compu</tspan><tspan class="cls-18" x="440.25" y="86.4">t</tspan><tspan x="446.45" y="86.4">er</tspan><tspan class="cls-16" x="0" y="115.2" xml:space="preserve">				</tspan><tspan x="144" y="115.2">GDC da</tspan><tspan class="cls-20" x="230.69" y="115.2">t</tspan><tspan x="237.12" y="115.2">a f</tspan><tspan class="cls-21" x="263.81" y="115.2">r</tspan><tspan x="271.32" y="115.2">om our se</tspan><tspan class="cls-22" x="378.02" y="115.2">r</tspan><tspan class="cls-23" x="386.73" y="115.2">v</tspan><tspan class="cls-19" x="398.13" y="115.2">er</tspan></tspan></text></g><g id="Layer_5" data-name="Layer 5"><rect class="cls-24" x="4.5" y="67.55" width="293.36" height="111.49"/><path class="cls-24" d="M613.54,307.14c-5.25,27.1-10.83,54.74-36,76.18-10.48,8.93-25.17,16.91-47.66,18.92-19.53,1.75-42.92-1.19-65.41-5.3-75.29-13.77-149.06-41.58-199.75-75.28s-77.62-72.86-72.93-106a207.7,207.7,0,0,0-28.67,18.78l24-19.14a10.85,10.85,0,0,1,7.71-2.76c4.12.09,8.42,1.9,12.09,3.56l33,15"/></g></svg>