<svg id="Layer_1" data-name="Layer 1" xmlns="http://www.w3.org/2000/svg" xmlns:xlink="http://www.w3.org/1999/xlink" viewBox="0 0 1920 1080"><defs><style>.cls-1{stroke:#000;opacity:0.8;}.cls-1,.cls-20{stroke-miterlimit:10;}.cls-2{font-size:29.91px;fill:#fff;font-family:Moon-Bold, Moon;}.cls-3{font-weight:700;}.cls-10,.cls-11,.cls-4,.cls-5,.cls-6,.cls-7,.cls-8,.cls-9{font-family:HelveticaLTStd-Roman, Helvetica LT Std;}.cls-5{letter-spacing:-0.09em;}.cls-6{letter-spacing:-0.14em;}.cls-15,.cls-7{letter-spacing:-0.01em;}.cls-12,.cls-8{letter-spacing:0.04em;}.cls-16,.cls-9{letter-spacing:-0.02em;}.cls-10{letter-spacing:-0.01em;}.cls-11{letter-spacing:-0.02em;}.cls-13{letter-spacing:1.07em;}.cls-14{letter-spacing:1.22em;}.cls-17{letter-spacing:-0.02em;}.cls-18{letter-spacing:0.03em;}.cls-19{letter-spacing:-0.02em;}.cls-20{fill:none;stroke:#fdb515;stroke-width:5px;}</style></defs><title>2.1</title><image width="3000" height="1739" transform="translate(0 -2.54) scale(0.64 0.62)" xlink:href="genamap-empty.PNG"/><rect class="cls-1" x="387.63" y="-2.54" width="1532.37" height="1091.06"/><text class="cls-2" transform="translate(472.18 207.58) scale(1.03 1)"><tspan class="cls-3">1</tspan><tspan class="cls-4" x="17.16" y="0">)</tspan><tspan class="cls-5" x="27.12" y="0"> </tspan><tspan class="cls-6" x="32.74" y="0">Y</tspan><tspan class="cls-4" x="48.5" y="0">ou can s</tspan><tspan class="cls-7" x="161.56" y="0">t</tspan><tspan class="cls-4" x="169.58" y="0">a</tspan><tspan class="cls-8" x="186.2" y="0">r</tspan><tspan class="cls-4" x="197.36" y="0">t </tspan><tspan class="cls-9" x="213.99" y="0">b</tspan><tspan class="cls-4" x="230.02" y="0">y impo</tspan><tspan class="cls-8" x="318.1" y="0">r</tspan><tspan class="cls-4" x="329.26" y="0">ting da</tspan><tspan class="cls-10" x="419.04" y="0">t</tspan><tspan class="cls-4" x="427.06" y="0">a in</tspan><tspan class="cls-11" x="475.27" y="0">t</tspan><tspan class="cls-4" x="482.99" y="0">o Genamap</tspan><tspan class="cls-4"><tspan x="0" y="107.67">Impo</tspan><tspan class="cls-12" x="66.49" y="107.67">r</tspan><tspan x="77.64" y="107.67">t </tspan><tspan class="cls-13" x="94.27" y="107.67">	</tspan><tspan class="cls-14" x="134.59" y="107.67">	</tspan><tspan x="179.45" y="107.67">Local da</tspan><tspan class="cls-15" x="292.51" y="107.67">t</tspan><tspan x="300.52" y="107.67">a f</tspan><tspan class="cls-16" x="333.78" y="107.67">r</tspan><tspan x="343.14" y="107.67">om </tspan><tspan class="cls-17" x="393" y="107.67">y</tspan><tspan x="407.36" y="107.67">our compu</tspan><tspan class="cls-17" x="548.65" y="107.67">t</tspan><tspan x="556.37" y="107.67">er</tspan><tspan class="cls-14" x="0" y="143.56" xml:space="preserve">				</tspan><tspan x="179.45" y="143.56">GDC da</tspan><tspan class="cls-15" x="287.48" y="143.56">t</tspan><tspan x="295.5" y="143.56">a f</tspan><tspan class="cls-16" x="328.76" y="143.56">r</tspan><tspan x="338.12" y="143.56">om our se</tspan><tspan class="cls-18" x="471.09" y="143.56">r</tspan><tspan class="cls-19" x="481.95" y="143.56">v</tspan><tspan x="496.16" y="143.56">er</tspan></tspan></text><rect class="cls-20" x="4.21" y="81.39" width="375.74" height="138.94"/><path class="cls-20" d="M784.81,387.48C778,421.89,770.75,457,734.15,483.4c-15.24,11-36.79,20.63-70.15,22.35-29,1.49-63.85-3.15-97.44-9.27C454.13,476,343.43,437.69,266.82,392.71s-118.11-96-112.36-138.18a296.21,296.21,0,0,0-41.93,22.89l34.95-23.53a16.92,16.92,0,0,1,11.37-3.23c6.13.28,12.59,2.75,18.1,5l49.68,20.39"/></svg>