<?xml version="1.0" encoding="utf-8"?>
<!-- Generator: Adobe Illustrator 20.1.0, SVG Export Plug-In . SVG Version: 6.00 Build 0)  -->
<svg version="1.1" xmlns="http://www.w3.org/2000/svg" xmlns:xlink="http://www.w3.org/1999/xlink" x="0px" y="0px"
	 viewBox="0 0 1920 1080" style="enable-background:new 0 0 1920 1080;" xml:space="preserve">
<style type="text/css">
	.st0{opacity:0.8;stroke:#000000;stroke-miterlimit:10;enable-background:new    ;}
	.st1{fill:#FFFFFF;}
	.st2{font-family:'HelveticaLTStd-Roman';}
	.st3{font-size:29.91px;}
	.st4{letter-spacing:1;}
	.st5{letter-spacing:35.9;}
	.st6{fill:none;stroke:#FDB515;stroke-width:5;stroke-miterlimit:10;}
</style>
<g id="Layer_1">
	<title>2.1</title>
	
		<image style="overflow:visible;enable-background:new    ;" width="3000" height="1739" xlink:href="genamap-empty.PNG"  transform="matrix(0.64 0 0 0.62 0 -2.54)">
	</image>
	<rect x="387.6" y="-2.5" class="st0" width="1532.4" height="1091.1"/>
	<text transform="matrix(1.03 0 0 1 472.1802 220.33)" class="st1 st2 st3">Start by importing data</text>
	<text transform="matrix(1.03 0 0 1 472.1802 315.25)" class="st1 st2 st3">Impo</text>
	<text transform="matrix(1.03 0 0 1 540.665 315.25)" class="st1 st2 st3 st4">r</text>
	<text transform="matrix(1.03 0 0 1 552.1494 315.25)" class="st1 st2 st3">t </text>
	<text transform="matrix(1.03 0 0 1 657.0137 315.25)" class="st1 st2 st3">Local da</text>
	<text transform="matrix(1.03 0 0 1 773.4653 315.25)" class="st1 st2 st3">t</text>
	<text transform="matrix(1.03 0 0 1 781.7158 315.25)" class="st1 st2 st3">a f</text>
	<text transform="matrix(1.03 0 0 1 815.9736 315.25)" class="st1 st2 st3">r</text>
	<text transform="matrix(1.03 0 0 1 825.6143 315.25)" class="st1 st2 st3">om </text>
	<text transform="matrix(1.03 0 0 1 876.9702 315.25)" class="st1 st2 st3">y</text>
	<text transform="matrix(1.03 0 0 1 891.7607 315.25)" class="st1 st2 st3">our compu</text>
	<text transform="matrix(1.03 0 0 1 1037.29 315.25)" class="st1 st2 st3">t</text>
	<text transform="matrix(1.03 0 0 1 1045.2412 315.25)" class="st1 st2 st3">er</text>
	<text transform="matrix(1.03 0 0 1 472.1802 351.1401)" class="st1 st2 st3 st5">    </text>
	<text transform="matrix(1.03 0 0 1 655.0137 351.1401)" class="st1 st2 st3">Public data from the NIHGDC</text>
	<rect x="4.2" y="81.4" class="st6" width="375.7" height="138.9"/>
	<path class="st6" d="M784.8,387.5c-6.8,34.4-14.1,69.5-50.7,95.9c-15.2,11-36.8,20.6-70.2,22.4c-29,1.5-63.8-3.1-97.4-9.3
		C454.1,476,343.4,437.7,266.8,392.7s-118.1-96-112.4-138.2c-14.6,6.5-28.6,14.1-41.9,22.9l35-23.5c3.3-2.4,7.3-3.6,11.4-3.2
		c6.1,0.3,12.6,2.8,18.1,5l49.7,20.4"/>
</g>
<g id="Layer_2">
</g>
</svg>
