<svg xmlns="http://www.w3.org/2000/svg" xmlns:xlink="http://www.w3.org/1999/xlink" viewBox="0 0 1500 867.5"><defs><style>.cls-1{stroke:#000;opacity:0.8;}.cls-1,.cls-20{stroke-miterlimit:10;}.cls-2{font-size:24px;fill:#fff;font-family:Moon-Bold, Moon;}.cls-3{font-weight:700;}.cls-10,.cls-11,.cls-4,.cls-5,.cls-6,.cls-7,.cls-8,.cls-9{font-family:HelveticaLTStd-Roman, Helvetica LT Std;}.cls-5{letter-spacing:-0.05em;}.cls-14,.cls-6{letter-spacing:0em;}.cls-7{letter-spacing:0.01em;}.cls-17,.cls-8{letter-spacing:-0.02em;}.cls-18,.cls-9{letter-spacing:0.04em;}.cls-10{letter-spacing:-0.01em;}.cls-11{letter-spacing:-0.03em;}.cls-12{letter-spacing:-0.02em;}.cls-13{letter-spacing:-0.04em;}.cls-15{letter-spacing:-0.01em;}.cls-16{letter-spacing:-0.02em;}.cls-19{letter-spacing:-0.04em;}.cls-20{fill:none;stroke:#fdb515;stroke-width:5px;}</style></defs><title>3.1</title><g id="Layer_5" data-name="Layer 5"><image width="3000" height="1739" transform="translate(1.58) scale(0.5)" xlink:href="../../../../../../../OneDrive/Projects/Research/Visualization Case Study/genamap-empty.PNG"/><rect class="cls-1" x="304.01" y="66" width="1196.28" height="801.5"/><text class="cls-2" transform="translate(640.72 358.09)"><tspan class="cls-3">2</tspan><tspan class="cls-4" x="13.77" y="0">)</tspan><tspan class="cls-5" x="21.76" y="0"> </tspan><tspan class="cls-6" x="27.23" y="0">Then </tspan><tspan class="cls-7" x="88.6" y="0">r</tspan><tspan class="cls-4" x="96.95" y="0">un ana</tspan><tspan class="cls-8" x="170.35" y="0">l</tspan><tspan class="cls-4" x="175.19" y="0">yzations on the impo</tspan><tspan class="cls-9" x="395.3" y="0">r</tspan><tspan class="cls-8" x="404.25" y="0">t</tspan><tspan class="cls-4" x="410.44" y="0">ed da</tspan><tspan class="cls-10" x="470.49" y="0">t</tspan><tspan class="cls-4" x="476.92" y="0">a </tspan><tspan class="cls-11" x="496.94" y="0">f</tspan><tspan class="cls-4" x="502.89" y="0">or visualization</tspan><tspan class="cls-4"><tspan class="cls-12" x="0" y="115.2">R</tspan><tspan x="16.85" y="115.2">ead</tspan><tspan class="cls-13" x="56.88" y="115.2">y</tspan><tspan class="cls-14" x="67.92" y="115.2">-</tspan><tspan class="cls-12" x="75.91" y="115.2">t</tspan><tspan x="82.1" y="115.2">o-sh</tspan><tspan class="cls-15" x="128.78" y="115.2">o</tspan><tspan x="141.77" y="115.2">w visualizations will appear bel</tspan><tspan class="cls-16" x="468.52" y="115.2">o</tspan><tspan x="481.51" y="115.2">w </tspan><tspan class="cls-17" x="505.51" y="115.2">y</tspan><tspan x="517.03" y="115.2">our impo</tspan><tspan class="cls-18" x="610.39" y="115.2">r</tspan><tspan x="619.34" y="115.2">ts on the le</tspan><tspan class="cls-19" x="736.75" y="115.2">f</tspan><tspan x="742.46" y="115.2">t</tspan></tspan></text><rect class="cls-20" x="888.22" y="9.26" width="134.58" height="46.74"/><path class="cls-20" d="M942.65,318.49a1684,1684,0,0,0,29.63-224.4c-6,8.73-13.23,15.62-21.06,20.14l20.31-29.61,9.74,29.47"/><path class="cls-20" d="M856.06,487.09c-1.1,37.72-25.09,72.42-56.85,93.66s-70.44,30.44-108.73,33.67c-32.28,2.73-65.48,1.38-95.95-9.44-39.44-14-71.47-42.74-100.34-72.62-108.78-112.58-189-251.23-309-352.26L197,217.43a80,80,0,0,0-12.26-36.91l44.52,18.88"/></g></svg>