<?xml version="1.0" encoding="utf-8"?>
<!-- Generator: Adobe Illustrator 20.1.0, SVG Export Plug-In . SVG Version: 6.00 Build 0)  -->
<svg version="1.1" xmlns="http://www.w3.org/2000/svg" xmlns:xlink="http://www.w3.org/1999/xlink" x="0px" y="0px"
	 viewBox="0 0 1500 867.5" style="enable-background:new 0 0 1500 867.5;" xml:space="preserve">
<style type="text/css">
	.st0{opacity:0.8;stroke:#000000;stroke-miterlimit:10;enable-background:new    ;}
	.st1{fill:#FFFFFF;}
	.st2{font-family:'HelveticaLTStd-Roman';}
	.st3{font-size:24px;}
	.st4{letter-spacing:-1;}
	.st5{enable-background:new    ;}
	.st6{letter-spacing:18;}
	.st7{letter-spacing:-6;}
	.st8{letter-spacing:29;}
	.st9{fill:none;stroke:#FDB515;stroke-width:5;stroke-miterlimit:10;}
</style>
<g id="Layer_1">
	<title>3.1</title>
	
		<image style="overflow:visible;enable-background:new    ;" width="3000" height="1739" xlink:href="../../../../../../../OneDrive/Projects/Research/Visualization Case Study/genamap-empty.PNG"  transform="matrix(0.5 0 0 0.5 1.58 0)">
	</image>
	<rect x="1.6" y="66" class="st0" width="1498.7" height="801.5"/>
	<text transform="matrix(1 0 0 1 662.48 358.09)" class="st1 st2 st3 st4"> </text>
	<text transform="matrix(1 0 0 1 699.72 354.0901)" class="st1 st2 st3">Run analyses on the imported data</text>
	<text transform="matrix(1 0 0 1 699.7202 401.29)" class="st5"><tspan x="0" y="0" class="st1 st2 st3">Analyze by </tspan><tspan x="118.8" y="0" class="st1 st2 st3 st6">	</tspan><tspan x="143.5" y="0" class="st1 st2 st3 st7">	</tspan><tspan x="144" y="0" class="st1 st2 st3 st8">	</tspan><tspan x="180" y="0" class="st1 st2 st3">Hypothesis testing</tspan><tspan x="0" y="28.8" class="st1 st2 st3 st8">					</tspan><tspan x="180" y="28.8" class="st1 st2 st3">Structured Association Analysis</tspan><tspan x="0" y="57.6" class="st1 st2 st3 st8">					</tspan><tspan x="180" y="57.6" class="st1 st2 st3">Confounding Effect Correction</tspan></text>
	<rect x="888.2" y="9.3" class="st9" width="134.6" height="46.7"/>
	<path class="st9" d="M902.2,318.5c30.5-74.1,50.8-149,60.7-224.4c-12.3,8.7-27.1,15.6-43.1,20.1l41.6-29.6l20,29.5"/>
</g>
<g id="Layer_3">
	
		<image style="overflow:visible;enable-background:new    ;" width="3000" height="1739" xlink:href="../../../../../../../OneDrive/Projects/Research/Visualization Case Study/genamap-empty.PNG"  transform="matrix(0.5 0 0 0.5 -7.28 1080.6008)">
	</image>
	<rect x="295.1" y="1080.6" class="st0" width="1196.3" height="867.5"/>
	<text transform="matrix(1 0 0 1 653.6199 1438.6909)" class="st1 st2 st3 st4"> </text>
	<text transform="matrix(1 0 0 1 631.8599 1495.8909)" class="st5"><tspan x="0" y="0" class="st1 st2 st3">Analyze by </tspan><tspan x="118.8" y="0" class="st1 st2 st3 st6">	</tspan><tspan x="143.5" y="0" class="st1 st2 st3 st7">	</tspan><tspan x="144" y="0" class="st1 st2 st3 st8">	</tspan><tspan x="180" y="0" class="st1 st2 st3">Hypothesis testing</tspan><tspan x="0" y="28.8" class="st1 st2 st3 st8">					</tspan><tspan x="180" y="28.8" class="st1 st2 st3">Structured Association Analysis</tspan><tspan x="0" y="57.6" class="st1 st2 st3 st8">					</tspan><tspan x="180" y="57.6" class="st1 st2 st3">Confounding Effect Correction</tspan></text>
	<path class="st9" d="M847.2,1582.5c-1.1,39.5-25.1,75.9-56.8,98.2c-31.8,22.3-70.4,31.9-108.7,35.3c-32.3,2.9-65.5,1.4-96-9.9
		c-39.4-14.7-71.5-44.8-100.3-76.1c-108.8-118-189-263.3-309-369.2l11.8,39.1c-1-13.8-5.2-27-12.3-38.7l44.5,19.8"/>
</g>
<g id="Layer_2">
</g>
</svg>
