<?xml version="1.0" encoding="utf-8"?>
<!-- Generator: Adobe Illustrator 20.1.0, SVG Export Plug-In . SVG Version: 6.00 Build 0)  -->
<svg version="1.1" id="Layer_1" xmlns="http://www.w3.org/2000/svg" xmlns:xlink="http://www.w3.org/1999/xlink" x="0px" y="0px"
	 viewBox="0 0 1500 867.5" style="enable-background:new 0 0 1500 867.5;" xml:space="preserve">
<style type="text/css">
	.st0{opacity:0.8;stroke:#000000;stroke-miterlimit:10;enable-background:new    ;}
	.st1{fill:#FFFFFF;}
	.st2{font-family:'Moon-Bold';}
	.st3{font-size:24px;}
	.st4{font-family:'HelveticaLTStd-Roman';}
	.st5{display:none;fill:none;stroke:#FDB515;stroke-width:5;stroke-miterlimit:10;}
	.st6{fill:none;stroke:#FDB515;stroke-width:5;stroke-miterlimit:10;}
</style>
<title>4.1</title>
<image style="overflow:visible;enable-background:new    ;" width="3000" height="1739" xlink:href="../../../../../../../OneDrive/Projects/Research/Visualization Case Study/genamap-empty.PNG"  transform="matrix(0.5 0 0 0.5 -4.0559 -3967.3948)">
</image>
<rect x="-26.3" y="-3901.4" class="st0" width="1522.5" height="801.5"/>
<rect x="-26.3" y="-3967.4" class="st0" width="319.2" height="65"/>
<text transform="matrix(1 0 0 1 24.8441 -3128.7249)" class="st1 st2 st3">OTHER controls</text>
<text transform="matrix(1 0 0 1 1556.9441 -3922.3948)" style="font-family:'MyriadPro-Regular'; font-size:12px;">v</text>
<image style="overflow:visible;enable-background:new    ;" width="3000" height="1739" xlink:href="../../../../../../../OneDrive/Projects/Research/Visualization Case Study/genamap-empty.PNG"  transform="matrix(0.5 0 0 0.5 -7.9409 -3048.8953)">
</image>
<rect x="-30.2" y="-2982.9" class="st0" width="1522.5" height="801.5"/>
<rect x="-30.2" y="-3048.9" class="st0" width="319.2" height="65"/>
<text transform="matrix(1 0 0 1 20.9591 -2210.2253)" class="st1 st2 st3">OTHER controls</text>
<text transform="matrix(1 0 0 1 1553.0591 -3003.8953)" style="font-family:'MyriadPro-Regular'; font-size:12px;">v</text>
<image style="overflow:visible;enable-background:new    ;" width="3000" height="1739" xlink:href="../../../../../../../OneDrive/Projects/Research/Visualization Case Study/genamap-empty.PNG"  transform="matrix(0.5 0 0 0.5 -0.176 -2012.7133)">
</image>
<rect x="-22.4" y="-1946.7" class="st0" width="1522.5" height="801.5"/>
<rect x="-22.4" y="-2012.7" class="st0" width="319.2" height="65"/>
<text transform="matrix(1 0 0 1 28.724 -1174.0433)" class="st1 st2 st3">OTHER controls</text>
<text transform="matrix(1 0 0 1 1560.824 -1967.7133)" style="font-family:'MyriadPro-Regular'; font-size:12px;">v</text>
<image style="overflow:visible;enable-background:new    ;" width="3000" height="1739" xlink:href="../../../../../../../OneDrive/Projects/Research/Visualization Case Study/genamap-empty.PNG"  transform="matrix(0.5 0 0 0.5 -8.826 -1015.9025)">
</image>
<rect x="-31" y="-949.9" class="st0" width="1522.5" height="801.5"/>
<rect x="-31" y="-1015.9" class="st0" width="319.2" height="65"/>
<text transform="matrix(1 0 0 1 20.074 -177.2325)" class="st1 st2 st3">OTHER controls</text>
<text transform="matrix(1 0 0 1 1552.1741 -970.9024)" style="font-family:'MyriadPro-Regular'; font-size:12px;">v</text>
<image style="overflow:visible;enable-background:new    ;" width="3000" height="1739" xlink:href="../../../../../../../OneDrive/Projects/Research/Visualization Case Study/genamap-empty.PNG"  transform="matrix(0.5 0 0 0.5 -0.1758 -1.302)">
</image>
<rect x="-22.4" y="64.7" class="st0" width="1522.5" height="801.5"/>
<rect x="-22.4" y="-1.3" class="st0" width="319.2" height="65"/>
<text transform="matrix(1 0 0 1 28.7242 837.3679)" class="st1 st2 st3">OTHER controls</text>
<text transform="matrix(1 0 0 1 183.8354 342.9804)" class="st1 st4 st3">Sh</text>
<text transform="matrix(1 0 0 1 213.1854 342.9804)" class="st1 st4 st3">o</text>
<text transform="matrix(1 0 0 1 226.1754 342.9804)" class="st1 st4 st3">w / Hide side bar</text>
<path class="st5" d="M303.6,307.8c14.9-74.1,24.8-149,29.6-224.4c-6,8.7-13.2,15.6-21.1,20.1l20.3-29.6l9.7,29.5"/>
<text transform="matrix(1 0 0 1 648.5641 332.298)" class="st1 st4 st3">More in-depth detail on how to use Genamap</text>
<text transform="matrix(1 0 0 1 636.2996 228.8478)" class="st1 st4 st3">Vi</text>
<text transform="matrix(1 0 0 1 657.6396 228.8478)" class="st1 st4 st3">e</text>
<text transform="matrix(1 0 0 1 670.4996 228.8478)" class="st1 st4 st3">w / Change account se</text>
<text transform="matrix(1 0 0 1 914.6296 228.8478)" class="st1 st4 st3">t</text>
<text transform="matrix(1 0 0 1 920.3397 228.8478)" class="st1 st4 st3">tings</text>
<path class="st6" d="M986.4,224.8c42.7,1.3,85.6-13.7,117.3-41s51.7-66.5,54.7-107l-16.6,13.6c4-4,8.4-8.2,14.1-9.3s12.8,2.4,12.7,8
	"/>
<path class="st5" d="M1140.8,331.8c33.4,10.2,67.2,10.9,100.7,1.9c10.7-2.9,21.4-6.7,31.5-14.8c21.6-17.3,39.4-53.6,51.6-96.6
	c12.2-43,19-92.4,22.9-142.4l-8.3,22.7l8.9-25.8c1.9,8.5,4.4,16.3,7.5,22.8"/>
<text transform="matrix(1 0 0 1 715.6036 293.3283)" class="st1 st4 st3">Learn about Genamap</text>
<path class="st5" d="M972,289.9c44.3,2.8,88.8,1.4,132.8-4.1c20.6-2.6,41.3-6.2,60.1-14.9c32.3-15,56.4-44.5,70.4-77.3
	s18.7-68.8,19.8-104.4l-10.3,19.7c2-8.6,6.3-16.6,12.3-23L1278,108"/>
<text transform="matrix(1 0 0 1 648.564 178.6862)" class="st1 st4 st3">Che</text>
<text transform="matrix(1 0 0 1 692.584 178.6862)" class="st1 st4 st3">c</text>
<text transform="matrix(1 0 0 1 704.1039 178.6862)" class="st1 st4 st3">k on p</text>
<text transform="matrix(1 0 0 1 769.474 178.6862)" class="st1 st4 st3">r</text>
<text transform="matrix(1 0 0 1 776.9839 178.6862)" class="st1 st4 st3">o</text>
<text transform="matrix(1 0 0 1 790.3339 178.6862)" class="st1 st4 st3">g</text>
<text transform="matrix(1 0 0 1 803.434 178.6862)" class="st1 st4 st3">r</text>
<text transform="matrix(1 0 0 1 810.944 178.6862)" class="st1 st4 st3">ess of ana</text>
<text transform="matrix(1 0 0 1 921.6839 178.6862)" class="st1 st4 st3">ly</text>
<text transform="matrix(1 0 0 1 938.0538 178.6862)" class="st1 st4 st3">sis</text>
<path class="st5" d="M985.2,172.2c44.5-0.2,80.4-36.5,80.2-81c0-1.8-0.1-3.5-0.2-5.3c-4.8,5.2-8.8,11.1-12,17.5
	c3.2-6.2,7.4-13.2,14.4-13.9c8-0.8,13.7,7.2,17.7,14.1"/>
<text transform="matrix(1 0 0 1 1560.8242 43.6979)" style="font-family:'MyriadPro-Regular'; font-size:12px;">v</text>
</svg>
