<svg xmlns="http://www.w3.org/2000/svg" xmlns:xlink="http://www.w3.org/1999/xlink" viewBox="0 0 1500 867.5"><defs><style>.cls-1{stroke:#000;opacity:0.8;}.cls-1,.cls-4{stroke-miterlimit:10;}.cls-2,.cls-5{font-size:24px;fill:#fff;}.cls-2,.cls-7{font-family:HelveticaLTStd-Roman, Helvetica LT Std;}.cls-3{letter-spacing:-0.01em;}.cls-4{fill:none;stroke:#fdb515;stroke-width:5px;}.cls-5{font-family:Moon-Bold, Moon;}.cls-6{font-weight:700;}.cls-8{letter-spacing:-0.02em;}.cls-9{letter-spacing:-0.02em;}.cls-10{letter-spacing:-0.01em;}.cls-11{letter-spacing:0em;}.cls-12{letter-spacing:-0.04em;}.cls-13{letter-spacing:0.02em;}</style></defs><title>4.1</title><g id="Layer_6" data-name="Layer 6"><image width="3000" height="1739" transform="scale(0.5)" xlink:href="../../../../../../../OneDrive/Projects/Research/Visualization Case Study/genamap-empty.PNG"/><rect class="cls-1" x="-22.21" y="66" width="1522.5" height="801.5"/><text class="cls-2" transform="translate(177.25 343.1)">Sh<tspan class="cls-3" x="29.35" y="0">o</tspan><tspan x="42.34" y="0">w / Hide side bar</tspan></text><rect class="cls-1" x="-22.21" width="319.22" height="65"/><path class="cls-4" d="M297,307.88a1684,1684,0,0,0,29.63-224.4c-6,8.73-13.23,15.62-21.06,20.14L325.89,74l9.74,29.47"/><text class="cls-5" transform="translate(28.9 838.67)"><tspan class="cls-6">OTHER controls</tspan><tspan class="cls-7" x="216.9" y="0"> </tspan></text><text class="cls-2" transform="translate(648.74 176.11)">Che<tspan class="cls-8" x="44.02" y="0">c</tspan><tspan x="55.54" y="0">k on p</tspan><tspan class="cls-9" x="120.91" y="0">r</tspan><tspan x="128.42" y="0">o</tspan><tspan class="cls-10" x="141.77" y="0">g</tspan><tspan class="cls-8" x="154.87" y="0">r</tspan><tspan class="cls-11" x="162.38" y="0">ess of ana</tspan><tspan class="cls-9" x="273.12" y="0">ly</tspan><tspan class="cls-11" x="289.49" y="0">sis</tspan></text><text class="cls-2" transform="translate(648.74 229.76)">Vi<tspan class="cls-9" x="21.34" y="0">e</tspan><tspan x="34.2" y="0">w / Change account se</tspan><tspan class="cls-12" x="278.33" y="0">t</tspan><tspan x="284.04" y="0">tings</tspan></text><text class="cls-2" transform="translate(648.74 279.6)">Lea<tspan class="cls-13" x="40.03" y="0">r</tspan><tspan x="48.62" y="0">n mo</tspan><tspan class="cls-9" x="101.98" y="0">r</tspan><tspan x="109.49" y="0">e about Genamap</tspan></text><text class="cls-2" transform="translate(648.74 333.6)">Mo<tspan class="cls-9" x="33.34" y="0">r</tspan><tspan x="40.85" y="0">e in-depth help</tspan></text><path class="cls-4" d="M985.36,169.62a80.6,80.6,0,0,0,80-86.29,75.33,75.33,0,0,0-12,17.53c3.16-6.2,7.44-13.19,14.36-13.87,8-.77,13.7,7.17,17.65,14.12"/><path class="cls-4" d="M998.86,225.76c42.65,1.3,85.62-13.7,117.3-41s51.73-66.46,54.73-107l-16.63,13.57c4-4,8.42-8.17,14.11-9.31s12.75,2.43,12.67,8"/><path class="cls-4" d="M967.35,279.86a703.56,703.56,0,0,0,132.85-4.12c20.57-2.6,41.31-6.2,60.11-14.93,32.32-15,56.45-44.47,70.45-77.25s18.7-68.82,19.83-104.44l-10.3,19.74a50,50,0,0,1,12.32-23L1273.29,98"/><path class="cls-4" d="M881.91,333.14A862.71,862.71,0,0,0,1104,335.07c23.54-2.85,47.14-6.72,69.42-14.83,47.64-17.34,87-53.62,113.85-96.61s42-92.44,50.6-142.41l-18.26,22.72,19.69-25.79a78.75,78.75,0,0,0,16.58,22.81"/><path class="cls-4" d="M892.23,392a936.89,936.89,0,0,0,251.87,2.29c26.7-3.38,53.46-8,78.74-17.57,54-20.55,98.65-63.54,129.13-114.49s47.66-109.55,57.39-168.77l-20.71,26.92L1411,89.82a93.27,93.27,0,0,0,18.81,27"/><text class="cls-2" transform="translate(648.74 383.6)">Logout of Genamap</text></g></svg>